<svg width="374" height="417" viewBox="0 0 374 417" fill="none" xmlns="http://www.w3.org/2000/svg">
<path d="M0 416.852V3.85185C20.6667 -4.81482 86 3.85185 202.5 3.85185C261 3.85185 388 64.3524 372 240.352C360.182 370.352 241 406.852 212 406.852C188.8 406.852 183.667 325.518 184 284.852C198.5 278.685 227.9 253.452 229.5 201.852C231.5 137.352 203.5 104.852 170.5 97.8518C137.5 90.8518 117.5 161.352 117.5 201.852C117.5 233.69 146.791 269.423 162.198 284.095C162.441 283.255 162.735 283.746 163 284.852C162.737 284.606 162.47 284.354 162.198 284.095C161.525 286.42 161.237 298.944 163 336.852C165.4 388.452 133.667 411.685 117.5 416.852H0Z" fill="#E52020"/>
</svg>
